<svg id="Calque_1" data-name="Calque 1" xmlns="http://www.w3.org/2000/svg" viewBox="0 0 418.9 415.23"><defs><style>.cls-1,.cls-4,.cls-5,.cls-6{fill:none;}.cls-1,.cls-2,.cls-3,.cls-4,.cls-5{stroke:#fff;}.cls-1{stroke-miterlimit:10;stroke-width:11px;}.cls-2,.cls-3,.cls-8{fill:#fff;}.cls-2,.cls-4{stroke-miterlimit:10;}.cls-2,.cls-3{opacity:0.34;}.cls-2,.cls-3,.cls-7{isolation:isolate;}.cls-3,.cls-5{stroke-miterlimit:10;}.cls-4{stroke-width:9.49px;}.cls-5{stroke-width:9.49px;}</style></defs><title>bees-logo</title><path class="cls-1" d="M168.4,277.71h0a55.83,55.83,0,0,1-16.9-76.9l52.6-82.4a55.83,55.83,0,0,1,76.9-16.9h0a55.83,55.83,0,0,1,16.9,76.9l-52.6,82.4A55.83,55.83,0,0,1,168.4,277.71Z" transform="translate(-1 -87.29)"/><ellipse class="cls-2" cx="254.6" cy="211.61" rx="53.3" ry="82.8" transform="matrix(1, -0.04, 0.04, 1, -10.17, -75.74)"/><ellipse class="cls-3" cx="192.22" cy="171.71" rx="82.8" ry="53.3" transform="translate(-51.77 -1.55) rotate(-22.29)"/><ellipse class="cls-4" cx="254.6" cy="211.61" rx="53.3" ry="82.8" transform="matrix(1, -0.04, 0.04, 1, -10.17, -75.74)"/><ellipse class="cls-5" cx="192.22" cy="171.71" rx="82.8" ry="53.3" transform="translate(-51.77 -1.55) rotate(-22.29)"/><rect class="cls-6" y="224.03" width="418.9" height="191.2"/><g class="cls-7"><path class="cls-8" d="M134.9,382.56h-31V311.35h29.5c14.8,0,22.7,8.3,22.7,20.6,0,8.1-5.6,12.61-7.8,14.11,2.9,1.8,8.8,5.5,8.8,15.5C157.1,375.16,147.6,382.56,134.9,382.56Zm-2.6-55.51H121.4v11.61h10.9c4.8,0,6.3-3,6.3-5.81S137.1,327.05,132.3,327.05Zm.9,27.31H121.4v12.5h11.8c4.8,0,6.4-3.3,6.4-6.3S138,354.36,133.2,354.36Z" transform="translate(-1 -87.29)"/><path class="cls-8" d="M181.9,361c0,4.4,3.4,8.4,9.5,8.4,5.7,0,8.2-1.6,11.1-4.5l9.8,9.8c-5.5,5.5-10.9,8.5-20.9,8.5-11.9,0-25.6-4.3-25.6-27.5,0-17.61,10-27.51,24.1-27.51,15.6,0,24.2,11.4,24.2,25.51V361Zm15.1-15.1c-1-2.3-3.2-4.2-7.1-4.2s-6.1,1.9-7.1,4.2a9.38,9.38,0,0,0-.9,4.2h16A9.38,9.38,0,0,0,197,345.86Z" transform="translate(-1 -87.29)"/><path class="cls-8" d="M237.8,361c0,4.4,3.4,8.4,9.5,8.4,5.7,0,8.2-1.6,11.1-4.5l9.8,9.8c-5.5,5.5-10.9,8.5-20.9,8.5-11.9,0-25.6-4.3-25.6-27.5,0-17.61,10-27.51,24.1-27.51,15.6,0,24.2,11.4,24.2,25.51V361Zm15.1-15.1c-1-2.3-3.2-4.2-7.1-4.2s-6.1,1.9-7.1,4.2a9.38,9.38,0,0,0-.9,4.2h16A9.38,9.38,0,0,0,252.9,345.86Z" transform="translate(-1 -87.29)"/><path class="cls-8" d="M298.2,383.16c-8.1,0-16-.4-23.4-7.8l10.6-10.6c4.5,4.5,10.3,4.5,13.1,4.5,2.4,0,7-.7,7-3.5,0-1.5-.7-3.1-3.9-3.4l-8.3-.8c-9.3-.9-15.6-5.1-15.6-15.6,0-11.91,10.7-17.81,21.4-17.81,8.8,0,15.9,1.3,21.2,6.61l-10.1,10.1c-2.7-2.7-7.2-3.2-11.4-3.2-4,0-5.3,1.9-5.3,3.1,0,.6-.2,2.6,3.5,3l8.3.8c11.3,1.1,16.2,7.8,16.2,16.4C321.5,377.66,310.7,383.16,298.2,383.16Z" transform="translate(-1 -87.29)"/></g></svg>