<svg height="512" viewBox="0 0 192 192" width="512" xmlns="http://www.w3.org/2000/svg"><g id="_14-crown" data-name="14-crown"><path d="m192 96a24 24 0 0 0 -47.975-1l-19.625 6.955-12.139-28.323a24 24 0 1 0 -32.522 0l-12.139 28.323-19.625-6.955a24 24 0 1 0 -26.085 24.9l10.11 41.072v23.028a8 8 0 0 0 8 8h112a8 8 0 0 0 8-8v-23.028l10.11-41.07a24.029 24.029 0 0 0 21.89-23.902zm-24-8a8 8 0 1 1 -8 8 8.009 8.009 0 0 1 8-8zm-72-40a8 8 0 1 1 -8 8 8.009 8.009 0 0 1 8-8zm-26.671 71.541a8.077 8.077 0 0 0 10.025-4.39l15.088-35.207c.516.033 1.034.056 1.558.056s1.042-.023 1.558-.056l15.088 35.207a8.077 8.077 0 0 0 10.025 4.39l26.072-9.234a24.179 24.179 0 0 0 5.871 5.6l-8.884 36.093h-99.46l-8.884-36.09a24.179 24.179 0 0 0 5.871-5.6zm-53.329-23.541a8 8 0 1 1 8 8 8.009 8.009 0 0 1 -8-8zm128 80h-96v-8h96z"/><circle cx="96" cy="120" r="8"/></g></svg>