<svg id="Layer_1" enable-background="new 0 0 512 512" height="512" viewBox="0 0 512 512" width="512" xmlns="http://www.w3.org/2000/svg"><path d="m393 329h-114.406l21.359-15.937c15.688 13.687 46.008 15.852 73.412-5.191 27.209-20.893 36.181-55.103 19.999-76.259-1.937-2.533-4.19-4.823-6.698-6.807-3.247-2.571-7.965-2.021-10.535 1.228s-2.021 7.965 1.229 10.535c1.532 1.213 2.909 2.611 4.091 4.156 11.166 14.6 3.441 39.385-17.22 55.25-12.093 9.287-26.77 13.842-39.254 12.192-4.788-.633-9.012-2.138-12.522-4.431l38.141-28.458c3.319-2.477 4.003-7.176 1.525-10.496-2.477-3.319-7.174-4.003-10.496-1.526l-38.525 28.743c-5.449-14.717 2.738-35.205 20.67-48.974 8.7-6.681 18.868-11.011 28.631-12.192 4.112-.498 7.043-4.234 6.545-8.347-.497-4.113-4.243-7.043-8.346-6.545-12.572 1.521-25.008 6.772-35.965 15.186-24.688 18.957-34.361 48.877-23.854 70.063l-27.28 20.355v-78.438c14.235-3.434 25.563-16.445 28.956-33.079 6.476 4.305 13.72 6.995 21.099 7.755 10.648 1.096 21.053-1.86 28.705-9.519 7.297-7.291 10.679-17.487 9.523-28.71-.76-7.379-3.449-14.624-7.754-21.099 19.466-3.97 33.97-18.808 33.97-36.455s-14.504-32.486-33.97-36.456c4.305-6.476 6.995-13.721 7.754-21.099 1.155-11.223-2.227-21.419-9.519-28.705-7.291-7.297-17.484-10.68-28.71-9.523-7.379.76-14.624 3.45-21.099 7.755-3.97-19.468-18.809-33.972-36.456-33.972s-32.486 14.505-36.456 33.971c-9.297-6.181-20.095-8.99-30.312-7.649-4.106.539-6.999 4.305-6.461 8.412.539 4.107 4.309 6.994 8.412 6.461 8.629-1.132 18.536 2.705 25.843 10.017.678.678 1.385 1.437 2.112 2.268 1.359 10.464 4.791 22.399 9.334 32.315-3.266 2.489-6.186 5.41-8.676 8.676-9.916-4.543-21.853-7.975-32.317-9.334-.828-.726-1.587-1.432-2.267-2.112-7.826-7.82-11.574-18.267-9.782-27.263.81-4.062-1.828-8.011-5.89-8.821-4.066-.808-8.012 1.829-8.821 5.89-2.148 10.781.601 22.644 7.266 32.71-19.474 3.966-33.985 18.807-33.985 36.459 0 17.647 14.504 32.486 33.97 36.456-4.305 6.476-6.995 13.721-7.754 21.099-1.155 11.223 2.227 21.419 9.519 28.705 7.631 7.637 18.018 10.624 28.71 9.523 7.379-.76 14.624-3.45 21.099-7.755 3.393 16.634 14.721 29.644 28.956 33.078v78.212l-27.018-20.668c10.079-21.152.362-50.727-24.117-69.523-15.409-11.832-33.767-17.36-50.355-15.165-11.941 1.58-21.753 6.991-28.374 15.648-16.182 21.157-7.21 55.367 19.999 76.259 23.814 18.286 55.451 21.368 73.863 4.792l21.354 16.339h-114.852c-9.649 0-17.5 7.851-17.5 17.5v26c0 9.649 7.851 17.5 17.5 17.5h7.5v25.974c0 4.142 3.357 7.5 7.5 7.5s7.5-3.358 7.5-7.5v-25.974h229v88.5c0 10.201-8.299 18.5-18.5 18.5h-192c-10.201 0-18.5-8.299-18.5-18.5v-30.32c0-4.142-3.357-7.5-7.5-7.5s-7.5 3.358-7.5 7.5v30.32c0 18.472 15.028 33.5 33.5 33.5h192c18.472 0 33.5-15.028 33.5-33.5v-88.5h7.5c9.649 0 17.5-7.851 17.5-17.5v-26c0-9.649-7.851-17.5-17.5-17.5zm-167.5-207c0-16.818 13.683-30.5 30.5-30.5s30.5 13.682 30.5 30.5-13.683 30.5-30.5 30.5-30.5-13.682-30.5-30.5zm106.154 75.659c-4.036 4.04-9.918 5.888-16.563 5.204-7.224-.744-14.367-4.322-20.117-10.076-.678-.678-1.385-1.437-2.112-2.268-1.359-10.464-4.791-22.399-9.334-32.315 3.266-2.489 6.186-5.41 8.676-8.676 9.916 4.542 21.852 7.975 32.316 9.334.83.727 1.589 1.433 2.268 2.113 5.753 5.749 9.331 12.893 10.075 20.117.684 6.644-1.164 12.526-5.209 16.567zm31.346-75.659c0 12.407-13.185 22.5-29.39 22.5-10.523 0-24.477-3.819-34.394-8.256 2.985-9.035 3.106-19.088 0-28.489 9.925-4.44 23.874-8.256 34.394-8.256 16.205.001 29.39 10.094 29.39 22.501zm-47.908-80.863c6.646-.686 12.526 1.164 16.567 5.209 4.04 4.037 5.888 9.918 5.204 16.563-.744 7.224-4.322 14.368-10.078 20.12-.678.678-1.436 1.384-2.264 2.109-10.465 1.359-22.401 4.791-32.317 9.334-2.489-3.266-5.409-6.186-8.676-8.676 4.542-9.916 7.975-21.851 9.334-32.315.727-.831 1.434-1.59 2.112-2.269 5.751-5.754 12.894-9.332 20.118-10.075zm-81.592 3.253c0-16.205 10.094-29.39 22.5-29.39s22.5 13.185 22.5 29.39c0 8.204-2.765 22.122-8.255 34.394-9.052-2.991-19.107-3.1-28.489 0-5.36-11.979-8.256-25.936-8.256-34.394zm-84.5 77.61c0-12.407 13.185-22.5 29.39-22.5 8.195 0 22.082 2.748 34.394 8.256-2.985 9.035-3.106 19.088 0 28.489-9.926 4.44-23.886 8.256-34.394 8.256-16.205-.001-29.39-10.094-29.39-22.501zm47.908 80.863c-6.646.685-12.526-1.165-16.567-5.209-4.04-4.037-5.888-9.918-5.204-16.563.744-7.224 4.322-14.368 10.078-20.12.677-.677 1.435-1.383 2.265-2.11 10.464-1.359 22.4-4.791 32.316-9.334 2.489 3.266 5.409 6.186 8.676 8.676-4.542 9.916-7.975 21.851-9.334 32.315-.727.831-1.434 1.59-2.112 2.269-5.751 5.755-12.894 9.333-20.118 10.076zm36.592-3.253c0-10.577 3.85-24.545 8.255-34.394 9.052 2.991 19.107 3.1 28.489 0 5.379 12.024 8.255 25.998 8.255 34.394 0 16.206-10.094 29.39-22.5 29.39s-22.499-13.185-22.499-29.39zm-46.477 108.556c-12.495 1.649-27.161-2.907-39.254-12.192-20.661-15.865-28.386-40.65-17.22-55.25 4.149-5.424 10.521-8.845 18.427-9.891 1.688-.223 3.416-.333 5.172-.333 11.235 0 23.624 4.495 34.082 12.525 17.622 13.531 25.833 33.551 20.939 48.207l-36.503-27.924c-3.289-2.517-7.997-1.889-10.514 1.4-2.517 3.29-1.89 7.997 1.4 10.514l36.671 28.053c-3.637 2.553-8.099 4.216-13.2 4.891zm208.477 64.334c0 1.378-1.121 2.5-2.5 2.5h-274c-1.379 0-2.5-1.122-2.5-2.5v-26c0-1.378 1.121-2.5 2.5-2.5h274c1.379 0 2.5 1.122 2.5 2.5z"/></svg>